<svg width="166" height="68" viewBox="0 0 166 68" fill="none" xmlns="http://www.w3.org/2000/svg">
<path d="M44.2925 33.6885C44.749 35.1204 45.1243 36.5109 45.376 37.8958C47.7938 51.2022 40.5688 61.4076 29.6892 63.3845C17.527 65.5944 6.44909 56.8912 4.17933 44.3995C1.90956 31.9078 9.21673 19.7237 21.094 17.5656C25.9784 16.7623 32.0375 18.1019 35.8038 20.868L31.7776 30.7166C29.2252 28.824 25.8944 27.9144 23.0677 28.428C17.3666 29.4639 13.3265 35.7243 14.5551 42.4861C15.6702 48.6234 21.0553 53.8164 28.1342 52.5302C32.7663 51.6885 35.6043 48.5359 34.987 44.328L26.2216 45.9207L25.1976 42.4861L44.2925 33.6885Z" fill="#E6E6E6"/>
<path d="M161.757 24.3864L162.581 33.1145L152.313 34.0837L152.95 61.607L143.396 61.607L140.9 35.1608L130.605 36.1324L129.781 27.4043L161.757 24.3864Z" fill="#E6E6E6"/>
<path d="M75.216 34.4338H78.121V61.9128H70.8923V51.1205L63.5623 61.4568H63.5117L56.1648 51.1205V61.9128H48.9362V34.4338H51.8411L63.5286 50.4449L75.216 34.4338Z" fill="#E6E6E6"/>
<path d="M97.3748 46.5773C100.28 46.5773 103.539 49.4991 103.539 53.6033C103.539 57.91 99.9251 61.9128 94.4699 61.9128H82.85V34.6872H91.8013C96.733 34.6872 100.347 38.0144 100.347 41.7638C100.347 44.5675 98.4895 46.5773 97.3748 46.5773ZM94.2841 43.0643C94.2841 41.7469 93.1356 40.97 91.5818 40.97H89.8084V45.243H91.5311C93.1018 45.243 94.2841 44.4661 94.2841 43.0643ZM93.372 55.3429C95.0272 55.3429 96.6148 54.5322 96.6148 52.7419C96.6148 51.1543 95.4663 50.1916 93.4227 50.1916L89.8084 50.1747V55.3429H93.372Z" fill="#E6E6E6"/>
<path d="M120.378 62.6053C111.917 62.6053 105.448 56.4407 105.448 48.3338C105.448 40.1593 111.933 33.9609 120.395 33.9609C128.857 33.9609 135.342 40.1593 135.342 48.3338C135.342 56.4407 128.857 62.6053 120.378 62.6053ZM120.395 55.6975C124.719 55.6975 128.029 52.4717 128.029 48.2831C128.029 44.0777 124.719 40.8349 120.395 40.8349C116.071 40.8349 112.761 44.0777 112.761 48.2831C112.761 52.4717 116.071 55.6975 120.395 55.6975Z" fill="#E6E6E6"/>
<ellipse cx="4.95723" cy="2.81349" rx="4.95723" ry="2.81349" transform="matrix(-0.866025 -0.5 -0.5 0.866025 108.963 4.95703)" fill="#01A5E4"/>
<ellipse cx="67.6173" cy="5.37786" rx="4.95723" ry="2.81349" transform="rotate(-30 67.6173 5.37786)" fill="#01A5E4"/>
<ellipse cx="10.6477" cy="6.94413" rx="10.6477" ry="6.94413" transform="matrix(-4.37114e-08 -1 -1 4.37114e-08 105.434 31.0166)" fill="#01A5E4"/>
<ellipse cx="73.4906" cy="20.6004" rx="10.4162" ry="6.94413" transform="rotate(-90 73.4906 20.6004)" fill="#01A5E4"/>
</svg>
