<svg width="53" height="65" viewBox="0 0 53 65" fill="none" xmlns="http://www.w3.org/2000/svg">
<path opacity="0.54" fill-rule="evenodd" clip-rule="evenodd" d="M23.7323 36.7475C27.5394 36.7475 31.1124 35.8862 34.2016 34.3781C34.9386 34.1671 35.6383 34.1413 35.9839 34.1679L44.7775 35.6921C45.5396 35.4771 47.6032 34.2148 49.7606 30.8849C51.9179 27.555 51.7929 24.8857 51.4607 23.9672L46.5949 17.8014C45.5573 16.4866 44.4675 14.172 43.8861 12.7882C41.091 5.52454 33.1241 0.283203 23.7323 0.283203C17.8403 0.283203 12.5091 2.34605 8.66387 5.67695C11.2946 3.80727 14.8305 2.82689 19.272 3.04963C32.0565 3.69078 37.1313 11.2093 36.512 19.6366C35.8927 28.0638 27.9663 33.2544 18.6181 32.5674C9.26998 31.8805 2.36984 25.269 2.98911 16.8418C3.14206 14.7603 3.58827 12.8344 4.32777 11.1219C3.15949 13.3816 2.51032 15.8833 2.51032 18.5153C2.51032 28.5847 12.0117 36.7475 23.7323 36.7475ZM8.37211 31.9403C3.56371 28.3823 2.32822 22.5631 2.31153 20.0982L1.30978 24.5457C1.15951 25.1708 1.08939 26.9141 2.011 28.886C2.93261 30.8579 4.56546 31.6724 5.26669 31.8331L8.37211 31.9403ZM20.273 57.0313L22.2076 59.728L22.5593 57.852L21.8558 57.0313H20.273ZM29.6522 58.6142L27.5417 63.1869C28.3624 62.7765 30.1094 61.5571 30.5315 59.9626L29.6522 58.6142ZM21.9879 63.3278L22.998 57.8949C25.6271 56.2967 28.8702 56.3386 30.1631 56.5594L26.2886 64.9801C22.7666 64.8288 21.954 63.8155 21.9879 63.3278ZM26.7434 37.3302C26.9173 37.3099 27.0884 37.2879 27.2565 37.2644C27.1234 37.5152 27.0126 37.7674 26.9209 38.0174C26.8635 37.7813 26.8043 37.552 26.7434 37.3302ZM30.9031 49.2919C29.8028 48.1059 28.8244 46.8019 28.0747 45.4757C28.4432 49.1972 28.6043 52.9649 28.646 55.3928C31.1308 54.647 33.0087 53.4586 34.3256 52.2816C33.12 51.4538 31.9537 50.4242 30.9031 49.2919ZM27.7267 55.6411C27.8719 51 27.6328 46.9816 27.2669 43.8196C26.8988 42.9169 26.5548 41.7751 26.5211 40.5287C26.512 40.1925 26.5262 39.8033 26.5837 39.3837C26.4222 38.5758 26.263 37.9087 26.12 37.3949C23.1703 37.662 19.5085 37.4436 15.6835 36.0436C14.257 37.4115 11.5095 42.0584 11.9316 49.703C12.1745 50.3681 12.6546 51.2249 13.406 52.0955L13.6097 47.5339L13.6287 52.3452C15.1601 54.0066 17.6887 55.6569 21.4503 56.065L21.4381 47.8815L21.85 56.1032C22.4775 56.1553 23.1379 56.1732 23.8323 56.1517C25.2552 56.1075 26.552 55.9238 27.7267 55.6411ZM31.8195 39.3C30.9362 40.1195 31.7848 42.5085 33.7207 44.9081C33.9834 45.2366 34.2665 45.5657 34.5685 45.8911C35.1044 46.4688 35.656 46.9881 36.2016 47.4382L36.2386 47.4686L36.2358 47.4456C38.1934 49.0373 40.0595 49.7282 40.8308 49.0126C41.411 48.4743 41.414 47.1427 40.8245 45.5949C39.895 45.1765 38.7996 45.5521 37.2151 46.186C38.9704 45.0755 39.872 44.9062 40.602 45.0629C40.1642 44.1011 39.5087 43.084 38.6323 42.1394C36.1439 39.4573 32.8163 38.3751 31.8195 39.3ZM0.246377 33.5639C-0.312031 34.8038 1.93959 37.0269 5.27552 38.5293C8.61145 40.0317 11.7684 40.2444 12.3268 39.0045C12.8853 37.7646 10.7977 34.9564 7.4618 33.4541C5.22643 32.4473 2.99773 32.2824 1.60247 32.6562C4.3856 32.8671 8.43069 35.6756 10.4542 37.2679C3.58265 32.6869 0.998737 32.4687 0.269271 33.5165C0.261188 33.5322 0.253554 33.548 0.246377 33.5639Z" fill="#FF19A3"/>
<path opacity="0.48" fill-rule="evenodd" clip-rule="evenodd" d="M24.7485 36.7475C28.555 36.7475 32.1273 35.8865 35.2162 34.3789C35.9542 34.1672 36.6553 34.1412 37.0013 34.1679L45.7949 35.6921C46.557 35.4771 48.6206 34.2148 50.778 30.8849C52.9353 27.555 52.8103 24.8857 52.4781 23.9672L47.6123 17.8014C46.5659 16.4755 45.4665 14.1329 44.889 12.7535C44.8227 12.5825 44.7536 12.4126 44.6817 12.2439L44.681 12.2425C41.7044 5.26345 33.9035 0.283203 24.7485 0.283203C18.8558 0.283203 13.5241 2.34654 9.67875 5.67812C12.3096 3.80768 15.8461 2.82684 20.2885 3.04963C33.0731 3.69078 38.1478 11.2093 37.5285 19.6366C36.9093 28.0638 28.9828 33.2544 19.6347 32.5674C10.2865 31.8805 3.38636 25.269 4.00564 16.8418C4.15869 14.7589 4.60539 12.8318 5.3458 11.1184C4.17638 13.379 3.52654 15.882 3.52654 18.5153C3.52654 28.5847 13.0279 36.7475 24.7485 36.7475ZM9.3892 31.9403C4.5808 28.3823 3.34531 22.5631 3.32862 20.0982L2.32687 24.5457C2.1766 25.1708 2.10648 26.9141 3.02809 28.886C3.9497 30.8579 5.58255 31.6724 6.28378 31.8331L9.3892 31.9403ZM21.2901 57.0313L23.2247 59.728L23.5764 57.852L22.8729 57.0313H21.2901ZM30.6697 58.6142L28.5592 63.1869C29.3799 62.7765 31.127 61.5571 31.549 59.9626L30.6697 58.6142ZM23.0055 63.3278L24.0155 57.8949C26.6446 56.2967 29.8877 56.3386 31.1806 56.5594L27.3061 64.9801C23.7841 64.8288 22.9715 63.8155 23.0055 63.3278ZM27.7621 37.3304C27.9355 37.3102 28.1061 37.2882 28.2737 37.2649C28.1411 37.5148 28.0306 37.7661 27.9391 38.0153C27.8819 37.7801 27.8229 37.5515 27.7621 37.3304ZM31.9206 49.2918C30.821 48.1067 29.8432 46.8037 29.0937 45.4784C29.4621 49.1991 29.6231 52.9657 29.6648 55.3931C32.1493 54.6473 34.0271 53.4591 35.3439 52.2822C34.138 51.4543 32.9714 50.4245 31.9206 49.2918ZM28.7454 55.6413C28.8906 51.0022 28.6518 46.9853 28.2861 43.8239C27.9173 42.9205 27.5723 41.7771 27.5386 40.5287C27.5294 40.1915 27.5437 39.801 27.6017 39.3799C27.4405 38.5739 27.2816 37.9081 27.1388 37.3951C24.189 37.6622 20.5273 37.4438 16.7023 36.0438C15.2758 37.4117 12.5283 42.0586 12.9504 49.7032C13.1931 50.3679 13.6729 51.2241 14.4235 52.0943L14.6272 47.5341L14.6461 52.3439C16.1774 54.0058 18.7062 55.6568 22.4686 56.0651L22.4565 47.8817L22.8684 56.1034C23.4959 56.1555 24.1565 56.1735 24.8511 56.1519C26.274 56.1077 27.5708 55.924 28.7454 55.6413ZM32.8373 39.3C31.9597 40.1142 32.7918 42.4778 34.7013 44.8617C34.9742 45.2056 35.2698 45.5503 35.5859 45.8911C36.1219 46.4688 36.6735 46.9881 37.2191 47.4382L37.2576 47.4698L37.2547 47.4464C39.2119 49.0375 41.0775 49.7281 41.8487 49.0125C42.4289 48.4742 42.4319 47.1427 41.8424 45.5948C40.9128 45.1765 39.8174 45.5521 38.2329 46.1859C39.9882 45.0754 40.8898 44.9061 41.6199 45.0628C41.182 44.1011 40.5266 43.084 39.6501 42.1393C37.1617 39.4573 33.8342 38.3751 32.8373 39.3ZM1.26347 33.5639C0.705058 34.8038 2.95668 37.0269 6.29261 38.5293C9.62854 40.0317 12.7855 40.2444 13.3439 39.0045C13.9023 37.7646 11.8148 34.9564 8.47889 33.4541C6.24352 32.4473 4.01482 32.2824 2.61956 32.6562C5.40269 32.8671 9.44777 35.6756 11.4713 37.2679C4.59975 32.6869 2.01583 32.4687 1.28636 33.5165C1.27828 33.5322 1.27064 33.548 1.26347 33.5639Z" fill="#01A5E4"/>
<path fill-rule="evenodd" clip-rule="evenodd" d="M24.2411 36.7475C28.0474 36.7475 31.6197 35.8866 34.7085 34.379C35.4463 34.1674 36.1472 34.1415 36.4931 34.1681L45.2867 35.6923C46.0489 35.4774 48.1124 34.215 50.2698 30.8851C52.4272 27.5553 52.3021 24.8859 51.9699 23.9675L47.1041 17.8017C46.0638 16.4834 44.9711 14.1603 44.3909 12.7778C41.5922 5.51953 33.6284 0.283203 24.2411 0.283203C18.3489 0.283203 13.0176 2.34617 9.17231 5.67724C11.803 3.80739 15.3391 2.82691 19.7808 3.04966C32.5653 3.69081 37.6401 11.2093 37.0208 19.6366C36.4015 28.0639 28.4751 33.2544 19.1269 32.5675C9.77878 31.8805 2.87864 25.2691 3.49792 16.8418C3.65088 14.7601 4.09717 12.834 4.83682 11.1213C3.66836 13.3812 3.01909 15.8831 3.01909 18.5153C3.01909 28.5847 12.5205 36.7475 24.2411 36.7475ZM8.88088 31.9405C4.07248 28.3825 2.83699 22.5633 2.8203 20.0984L1.81855 24.5459C1.66828 25.171 1.59816 26.9143 2.51977 28.8862C3.44138 30.8581 5.07423 31.6726 5.77546 31.8333L8.88088 31.9405ZM20.7818 57.0315L22.7164 59.7282L23.0681 57.8522L22.3646 57.0315H20.7818ZM30.1614 58.6144L28.0509 63.1871C28.8716 62.7767 30.6186 61.5573 31.0407 59.9628L30.1614 58.6144ZM22.4971 63.328L23.5072 57.8952C26.1363 56.2969 29.3794 56.3388 30.6723 56.5596L26.7978 64.9803C23.2758 64.829 22.4632 63.8157 22.4971 63.328ZM26.63 37.3956C23.6803 37.6626 20.0188 37.4441 16.194 36.0442C14.7675 37.4121 12.02 42.0591 12.4421 49.7037C12.6848 50.3683 13.1645 51.2244 13.915 52.0945L14.1187 47.5343L14.1377 52.3442C15.6688 54.006 18.1975 55.6571 21.9597 56.0655L21.9476 47.8819L22.3595 56.1038C22.9872 56.1559 23.648 56.1739 24.3428 56.1523C25.7655 56.1082 27.062 55.9245 28.2365 55.6419C28.5174 46.6702 27.362 40.0254 26.63 37.3956ZM27.2533 37.3309C28.6182 42.2978 29.0808 51.02 29.1559 55.3937C33.3801 54.1259 35.8505 51.5791 36.7923 49.9833C35.7197 49.2825 34.6237 48.3437 33.6106 47.2518C32.2476 45.7827 31.1722 44.1847 30.5712 42.7313C30.2738 42.0122 30.0493 41.2249 30.0283 40.448C30.0074 39.6757 30.1914 38.6592 31.0157 37.8944C31.7147 37.2459 32.5822 37.0603 33.283 37.0381C33.0002 36.6693 32.6977 36.3353 32.3743 36.0442C31.3438 36.5134 29.5416 37.0631 27.2533 37.3309ZM36.7493 47.471L36.7463 47.4469C38.7035 49.0379 40.5689 49.7283 41.34 49.0128C41.9203 48.4744 41.9232 47.1428 41.3336 45.5948C40.4041 45.1765 39.3087 45.5522 37.7243 46.186C39.4795 45.0755 40.3811 44.9062 41.1111 45.0629C40.6733 44.1012 40.0179 43.0842 39.1415 42.1396C36.6531 39.4576 33.3255 38.3754 32.3287 39.3003C31.4622 40.1041 32.2623 42.4182 34.1203 44.7709C34.413 45.1451 34.7326 45.5206 35.0767 45.8915C35.6256 46.4831 36.1909 47.0135 36.7493 47.471ZM0.755568 33.5636C0.197159 34.8035 2.44879 37.0265 5.78471 38.5289C9.12064 40.0313 12.2776 40.2441 12.836 39.0042C13.3944 37.7643 11.3069 34.9561 7.97099 33.4537C5.73462 32.4465 3.50494 32.2819 2.1098 32.6563C4.89299 32.8661 8.93939 35.6756 10.9634 37.2682C4.08829 32.6848 1.50525 32.4687 0.777305 33.5184C0.769649 33.5333 0.762402 33.5484 0.755568 33.5636Z" fill="#E6E6E6"/>
<g filter="url(#filter0_d_749_1231)">
<ellipse cx="8.35975" cy="9.76641" rx="2.08925" ry="1.08422" transform="rotate(-30 8.35975 9.76641)" fill="#01A5E4"/>
</g>
<g filter="url(#filter1_d_749_1231)">
<ellipse cx="2.66921" cy="1.51492" rx="2.66921" ry="1.51492" transform="matrix(-0.866025 -0.5 -0.5 0.866025 25.238 9.68945)" fill="#01A5E4"/>
</g>
<g filter="url(#filter2_d_749_1231)">
<ellipse cx="5.71974" cy="3.68606" rx="5.71974" ry="3.68606" transform="matrix(-4.37114e-08 -1 -1 4.37114e-08 23.6758 25.0684)" fill="#01A5E4"/>
</g>
<g filter="url(#filter3_d_749_1231)">
<ellipse cx="4.83" cy="2.03369" rx="4.83" ry="2.03369" transform="matrix(-4.37114e-08 -1 -1 4.37114e-08 10.0759 23.3877)" fill="#01A5E4"/>
</g>
<defs>
<filter id="filter0_d_749_1231" x="3.47046" y="5.36133" width="9.77856" height="8.80957" filterUnits="userSpaceOnUse" color-interpolation-filters="sRGB">
<feFlood flood-opacity="0" result="BackgroundImageFix"/>
<feColorMatrix in="SourceAlpha" type="matrix" values="0 0 0 0 0 0 0 0 0 0 0 0 0 0 0 0 0 0 127 0" result="hardAlpha"/>
<feOffset/>
<feGaussianBlur stdDeviation="1.5"/>
<feComposite in2="hardAlpha" operator="out"/>
<feColorMatrix type="matrix" values="0 0 0 0 0.170393 0 0 0 0 0.903662 0 0 0 0 0.903662 0 0 0 0.7 0"/>
<feBlend mode="normal" in2="BackgroundImageFix" result="effect1_dropShadow_749_1231"/>
<feBlend mode="normal" in="SourceGraphic" in2="effect1_dropShadow_749_1231" result="shape"/>
</filter>
<filter id="filter1_d_749_1231" x="16.7358" y="4.79492" width="10.8662" height="9.74316" filterUnits="userSpaceOnUse" color-interpolation-filters="sRGB">
<feFlood flood-opacity="0" result="BackgroundImageFix"/>
<feColorMatrix in="SourceAlpha" type="matrix" values="0 0 0 0 0 0 0 0 0 0 0 0 0 0 0 0 0 0 127 0" result="hardAlpha"/>
<feOffset/>
<feGaussianBlur stdDeviation="1.5"/>
<feComposite in2="hardAlpha" operator="out"/>
<feColorMatrix type="matrix" values="0 0 0 0 0.170393 0 0 0 0 0.903662 0 0 0 0 0.903662 0 0 0 0.7 0"/>
<feBlend mode="normal" in2="BackgroundImageFix" result="effect1_dropShadow_749_1231"/>
<feBlend mode="normal" in="SourceGraphic" in2="effect1_dropShadow_749_1231" result="shape"/>
</filter>
<filter id="filter2_d_749_1231" x="13.3037" y="10.6289" width="13.3721" height="17.4395" filterUnits="userSpaceOnUse" color-interpolation-filters="sRGB">
<feFlood flood-opacity="0" result="BackgroundImageFix"/>
<feColorMatrix in="SourceAlpha" type="matrix" values="0 0 0 0 0 0 0 0 0 0 0 0 0 0 0 0 0 0 127 0" result="hardAlpha"/>
<feOffset/>
<feGaussianBlur stdDeviation="1.5"/>
<feComposite in2="hardAlpha" operator="out"/>
<feColorMatrix type="matrix" values="0 0 0 0 0.170393 0 0 0 0 0.903662 0 0 0 0 0.903662 0 0 0 0.7 0"/>
<feBlend mode="normal" in2="BackgroundImageFix" result="effect1_dropShadow_749_1231"/>
<feBlend mode="normal" in="SourceGraphic" in2="effect1_dropShadow_749_1231" result="shape"/>
</filter>
<filter id="filter3_d_749_1231" x="3.00854" y="10.7275" width="10.0674" height="15.6602" filterUnits="userSpaceOnUse" color-interpolation-filters="sRGB">
<feFlood flood-opacity="0" result="BackgroundImageFix"/>
<feColorMatrix in="SourceAlpha" type="matrix" values="0 0 0 0 0 0 0 0 0 0 0 0 0 0 0 0 0 0 127 0" result="hardAlpha"/>
<feOffset/>
<feGaussianBlur stdDeviation="1.5"/>
<feComposite in2="hardAlpha" operator="out"/>
<feColorMatrix type="matrix" values="0 0 0 0 0.170393 0 0 0 0 0.903662 0 0 0 0 0.903662 0 0 0 0.7 0"/>
<feBlend mode="normal" in2="BackgroundImageFix" result="effect1_dropShadow_749_1231"/>
<feBlend mode="normal" in="SourceGraphic" in2="effect1_dropShadow_749_1231" result="shape"/>
</filter>
</defs>
</svg>
